# xmcd
#
# Track frame offsets: 
#        150
#        16302
#        40103
#        64521
#        86589
#        110442
#        131958
#        152194
#        172315
#        186543
#
# Disc length: 2799 seconds
#
# Revision: 0
# Processed by: cddbd v1.5.2PL0 Copyright (c) Steve Scherf et al.
# Submitted via: ExactAudioCopy v1.0b3
#
DISCID=8b0aed0a
DTITLE=Mong Thi, Truc Quyen - Tua Canh Beo Troi
DYEAR=1998
DGENRE=
TTITLE0=Mong Thi - Cung tat bien dong
TTITLE1=Truc Quyen - Tua canh beo troi
TTITLE2=Mong Thi - Hinh bong que nha
TTITLE3=Truc Quyen - Ngan thu vinh biet
TTITLE4=Mong Thi - Tinh nho mau quen
TTITLE5=Truc Quyen - Thanh pho sau lung
TTITLE6=Mong Thi - Thuong nho
TTITLE7=Truc Quyen - O hai dau noi nho
TTITLE8=Mong Thi - Muoi lam nam truoc
TTITLE9=Truc Quyen - Tieng hai dem
EXTD=
EXTT0=
EXTT1=
EXTT2=
EXTT3=
EXTT4=
EXTT5=
EXTT6=
EXTT7=
EXTT8=
EXTT9=
PLAYORDER=
